<svg width="36" height="32" viewBox="0 0 36 32" fill="none" xmlns="http://www.w3.org/2000/svg">
<path d="M20.4998 30.4312C19.9423 30.6092 19.3079 30.716 18.5869 30.716C17.9509 30.716 17.3502 30.6169 16.7766 30.4204C16.296 30.8583 15.5799 31.0115 14.4745 31.0115H14.2422L14.239 31.0208C15.3188 31.6151 16.5395 31.9075 17.8836 31.9075C19.3703 31.9075 20.7369 31.5006 21.7302 30.9682C21.1294 30.8986 20.7369 30.7345 20.4998 30.4312ZM24.0307 0.0922852L5.84587 27.2016C4.22139 29.7116 2.92213 31.0115 0.371675 31.0115L0 31.9075H7.60812L7.9798 31.0115H7.7475C5.14898 31.0115 5.2419 29.7116 6.95929 27.3362L10.3797 22.2248L10.9484 21.3767H12.7731C12.8404 20.9806 12.9269 20.6076 13.031 20.2563H11.6901L14.5242 16.0316L21.3393 5.87224L19.7773 15.3678L19.6315 16.2498C20.9516 16.5795 21.5828 17.33 21.5828 18.1192C21.5828 18.5618 21.2303 19.3449 21.2303 19.8555C21.2303 20.2084 21.3297 20.5039 21.5075 20.7268L22.2284 16.4216L24.9583 0.0922852H24.0307Z" fill="#FAFAFA"/>
<path d="M18.0569 24.0223L19.6461 19.6349L18.9805 23.8138L25.4467 22.3207C28.9138 21.5572 31.3453 20.8126 32.7804 20.0599C34.1874 19.2694 34.9722 18.3515 35.1362 17.3105C35.3324 16.0664 34.2785 15.2935 32.9906 15.104C32.0502 14.9659 30.3349 15.0796 28.7232 15.3788C26.3184 15.8241 23.4861 17.1657 23.4861 17.1657C23.4861 17.1657 25.9722 15.8986 26.9924 15.4519C27.3078 15.3138 28.6195 14.867 29.1464 14.7276C30.8548 14.2755 32.018 14.2728 32.9219 14.4054C34.975 14.7073 36.2489 15.8905 35.9588 17.7397C35.6995 19.3871 34.7928 20.6299 33.2316 21.5016C31.6704 22.3734 29.2235 23.2182 25.8545 24.0304L18.6848 25.6955L17.984 29.5793C17.984 29.5793 17.9084 28.3447 17.8159 27.8141C17.6841 27.0506 17.4487 26.4387 17.1628 26.0921C16.3724 25.1337 15.0214 24.9672 13.6172 25.0701L18.0583 24.0223H18.0569Z" fill="#FAFAFA"/>
<path d="M24.0519 26.8007L23.9109 27.2093C23.6305 28.0202 22.6404 29.7518 20.5001 30.4312C19.9426 30.6091 19.3082 30.7159 18.5873 30.7159C17.9513 30.7159 17.3505 30.6169 16.777 30.4203C15.9231 30.1263 15.1333 29.611 14.3931 28.8775C13.1948 27.6178 12.5972 25.8475 12.5972 23.5664C12.5972 22.7756 12.6581 22.0452 12.7734 21.3767C12.8407 20.9805 12.9272 20.6076 13.0314 20.2563C13.85 17.4924 15.7484 16.0765 18.0586 16.0765C18.6626 16.0765 19.1864 16.1399 19.6318 16.2498C20.9519 16.5794 21.5831 17.33 21.5831 18.1192C21.5831 18.5618 21.2306 19.3448 21.2306 19.8555C21.2306 20.2083 21.33 20.5039 21.5078 20.7267C21.7417 21.0192 22.1118 21.1833 22.57 21.1833C23.4511 21.1833 24.0519 20.5704 24.0519 19.481C24.0519 18.3915 23.4863 17.3702 22.3585 16.5191C22.3152 16.485 22.272 16.4525 22.2287 16.4216C21.5254 15.9032 20.7084 15.5488 19.7776 15.3677C19.2954 15.2733 18.7811 15.2253 18.2364 15.2253C16.8474 15.2253 15.6107 15.4915 14.5245 16.0316C13.7891 16.3968 13.1227 16.8874 12.5251 17.5064C11.3172 18.7552 10.6027 20.3228 10.38 22.2247C10.3303 22.6549 10.3047 23.1022 10.3047 23.5664C10.3047 26.0517 11.0096 28.0944 12.4546 29.6265C12.9961 30.2006 13.5921 30.6649 14.2393 31.0208C15.3191 31.615 16.5399 31.9075 17.884 31.9075C19.3707 31.9075 20.7372 31.5005 21.7305 30.9682C22.1759 30.7314 22.5443 30.4683 22.8167 30.2052C23.2765 29.7627 23.6978 29.252 24.0166 28.6732C24.6863 27.5497 24.7199 27.2433 24.7568 26.9709L24.0519 26.8007Z" fill="#FAFAFA"/>
</svg>
