<svg width="20" height="16" viewBox="0 0 20 16" fill="none" xmlns="http://www.w3.org/2000/svg">
<path d="M1.65 9C1.38333 8.88333 1.19167 8.69167 1.075 8.425C0.975 8.14167 0.975 7.86667 1.075 7.6C1.19167 7.31667 1.38333 7.11667 1.65 7H18.35C18.6167 7.11667 18.8 7.31667 18.9 7.6C19.0167 7.86667 19.0167 8.14167 18.9 8.425C18.8 8.69167 18.6167 8.88333 18.35 9H1.65ZM1.65 2C1.38333 1.88333 1.19167 1.69167 1.075 1.425C0.975 1.14167 0.975 0.866666 1.075 0.599998C1.19167 0.316666 1.38333 0.116666 1.65 -9.53674e-07H18.35C18.6167 0.116666 18.8 0.316666 18.9 0.599998C19.0167 0.866666 19.0167 1.14167 18.9 1.425C18.8 1.69167 18.6167 1.88333 18.35 2H1.65ZM1.65 16C1.38333 15.8833 1.19167 15.6917 1.075 15.425C0.975 15.1417 0.975 14.8667 1.075 14.6C1.19167 14.3167 1.38333 14.1167 1.65 14H18.35C18.6167 14.1167 18.8 14.3167 18.9 14.6C19.0167 14.8667 19.0167 15.1417 18.9 15.425C18.8 15.6917 18.6167 15.8833 18.35 16H1.65Z" fill="#71717A"/>
</svg>
