<svg width="20" height="20" viewBox="0 0 20 20" fill="none" xmlns="http://www.w3.org/2000/svg">
<path fill-rule="evenodd" clip-rule="evenodd" d="M16.0906 17.5056C16.4811 17.8961 17.1143 17.8961 17.5048 17.5056C17.8953 17.1151 17.8953 16.4819 17.5048 16.0914L11.4139 10.0004L17.5048 3.90949C17.8953 3.51896 17.8953 2.8858 17.5048 2.49527C17.1143 2.10475 16.4811 2.10475 16.0906 2.49527L9.99964 8.58622L3.90828 2.49486C3.51776 2.10433 2.88459 2.10433 2.49407 2.49486C2.10354 2.88538 2.10354 3.51855 2.49407 3.90907L8.58543 10.0004L2.49406 16.0918C2.10354 16.4823 2.10354 17.1155 2.49406 17.506C2.88459 17.8965 3.51775 17.8965 3.90828 17.506L9.99964 11.4146L16.0906 17.5056Z" fill="#EFEFEF"/>
</svg>
